<svg xmlns="http://www.w3.org/2000/svg" version="1.1" xmlns:xlink="http://www.w3.org/1999/xlink" xmlns:svgjs="http://svgjs.dev/svgjs" width="2000" height="1999" viewBox="0 0 2000 1999">
<g transform="matrix(1,0,0,1,-0.431486880466764,-0.4312711370263287)">
<svg viewBox="0 0 343 343" data-background-color="#ffffff" preserveAspectRatio="xMidYMid meet" height="1999" width="2000" xmlns="http://www.w3.org/2000/svg" xmlns:xlink="http://www.w3.org/1999/xlink">
<g id="tight-bounds" transform="matrix(1,0,0,1,0.0740000000000407,0.07400000000001228)">
<svg viewBox="0 0 342.85155851775386 342.85155851775386" height="342.85155851775386" width="342.85155851775386">
<g>
<svg>
</svg>
</g>
<g>
<svg viewBox="0 0 342.85155851775386 342.85155851775386" height="342.85155851775386" width="342.85155851775386">
<g>
<path d="M0 171.426c0-94.676 76.75-171.426 171.426-171.426 94.676 0 171.426 76.75 171.426 171.426 0 94.676-76.75 171.426-171.426 171.426-94.676 0-171.426-76.75-171.426-171.426zM171.426 336.658c91.255 0 165.232-73.977 165.232-165.232 0-91.255-73.977-165.232-165.232-165.232-91.255 0-165.232 73.977-165.232 165.232 0 91.255 73.977 165.232 165.232 165.232z" data-fill-palette-color="tertiary" fill="#6575a8" stroke="transparent">
</path>
<ellipse rx="164.56874808852186" ry="164.56874808852186" cx="171.42577925887693" cy="171.42577925887693" fill="#6575a8" stroke="transparent" stroke-width="0" fill-opacity="1" data-fill-palette-color="tertiary"></ellipse>
</g>
<g transform="matrix(1,0,0,1,64.84655864529837,124.27868142599189)">
<svg viewBox="0 0 213.1584412271571 94.29419566577008" height="94.29419566577008" width="213.1584412271571">
<g>
<svg viewBox="0 0 213.1584412271571 94.29419566577008" height="94.29419566577008" width="213.1584412271571">
<g>
<svg viewBox="0 0 373.28474679602505 165.12874062501544" height="94.29419566577008" width="213.1584412271571">
<g transform="matrix(1,0,0,1,160.12630556886796,22.42613328188014)">
<svg viewBox="0 0 213.1584412271571 120.27647406125516" height="120.27647406125516" width="213.1584412271571">
<g id="textblocktransform">
<svg viewBox="0 0 213.1584412271571 120.27647406125516" height="120.27647406125516" width="213.1584412271571" id="textblock">
<g>
<svg viewBox="0 0 213.1584412271571 120.27647406125516" height="120.27647406125516" width="213.1584412271571">
<g transform="matrix(1,0,0,1,0,0)">
<svg width="213.1584412271571" viewBox="2.3 -36.55 65.75 37.099999999999994" height="120.27647406125516" data-palette-color="#ffffff">
<path d="M38.15-33.6L33.95-32.55 33.95-3.45 38.15-2.4 38.15 0 24.25 0 24.25-2.4 28.45-3.45 28.45-16.9 12-16.9 12-3.45 16.2-2.4 16.2 0 2.3 0 2.3-2.4 6.5-3.45 6.5-32.55 2.3-33.6 2.3-36 16.2-36 16.2-33.6 12-32.55 12-20.05 28.45-20.05 28.45-32.55 24.25-33.6 24.25-36 38.15-36 38.15-33.6ZM56.45 0.55L56.45 0.55Q53.55 0.55 51.27-0.33 49-1.2 47.4-2.9L47.4-2.9 46.85 0 43.55 0 43.55-11.6 47.1-11.6Q47.4-6.75 49.52-4.6 51.65-2.45 55.65-2.45L55.65-2.45Q59-2.45 60.75-3.78 62.5-5.1 62.5-7.7L62.5-7.7Q62.5-9.85 61.42-11.25 60.35-12.65 58.32-13.75 56.3-14.85 53.5-15.95L53.5-15.95Q50.4-17.25 48.2-18.55 46-19.85 44.85-21.7 43.7-23.55 43.7-26.45L43.7-26.45Q43.7-31.25 46.67-33.9 49.65-36.55 54.65-36.55L54.65-36.55Q59.6-36.55 62.7-33.75L62.7-33.75 63.1-36 66.4-36 66.4-24.4 63.05-24.4Q63.05-29.15 61.27-31.38 59.5-33.6 55.7-33.6L55.7-33.6Q49.25-33.6 49.25-27.65L49.25-27.65Q49.25-25.95 49.9-24.9 50.55-23.85 52.12-22.95 53.7-22.05 56.6-20.8L56.6-20.8Q60.75-19 63.27-17.35 65.8-15.7 66.92-13.8 68.05-11.9 68.05-9.3L68.05-9.3Q68.05-6.15 66.55-3.95 65.05-1.75 62.45-0.6 59.85 0.55 56.45 0.55Z" opacity="1" transform="matrix(1,0,0,1,0,0)" fill="#ffffff" class="wordmark-text-0" data-fill-palette-color="quaternary" id="text-0">
</path>
</svg>
</g>
</svg>
</g>
</svg>
</g>
</svg>
</g>
<g>
<svg viewBox="0 0 131.7319166783831 165.12874062501544" height="165.12874062501544" width="131.7319166783831">
<g>
<svg xmlns="http://www.w3.org/2000/svg" xmlns:xlink="http://www.w3.org/1999/xlink" version="1.1" x="0" y="0" viewBox="18.9 5.5 71 89" style="enable-background:new 0 0 100 100;" xml:space="preserve" height="165.12874062501544" width="131.7319166783831" class="icon-icon-0" data-fill-palette-color="quaternary" id="icon-0">
<g fill="#ffffff" data-fill-palette-color="quaternary">
<g fill="#ffffff" data-fill-palette-color="quaternary">
<path d="M78.9 24.3L60.4 5.5H18.9v89h60v-6.8h11V52.6h-11V24.3zM58.4 7.7l18.5 18.6H58.4V7.7zM86.9 55.6v29.1H30.4V55.6H86.9z" fill="#ffffff" data-fill-palette-color="quaternary">
</path>
<polygon points="56.4,71.8 61.2,71.8 61.2,77.9 64,77.9 64,63.2 61.2,63.2 61.2,69.2 56.4,69.2 56.4,63.2 53.5,63.2 53.5,77.9     56.4,77.9   " fill="#ffffff" data-fill-palette-color="quaternary">
</polygon>
</g>
</g>
</svg>
</g>
</svg>
</g>
</svg>
</g>
</svg>
</g>
</svg>
</g>
</svg>
</g>
<defs>
</defs>
</svg>
<rect width="342.85155851775386" height="342.85155851775386" fill="none" stroke="none" visibility="hidden">
</rect>
</g>
</svg>
</g>
</svg>